<?xml version="1.0" standalone="no"?>
<!DOCTYPE svg PUBLIC "-//W3C//DTD SVG 20010904//EN"
 "http://www.w3.org/TR/2001/REC-SVG-20010904/DTD/svg10.dtd">
<svg version="1.0" xmlns="http://www.w3.org/2000/svg"
 width="1080.000000pt" height="1080.000000pt" viewBox="0 0 1080.000000 1080.000000"
 preserveAspectRatio="xMidYMid meet">

<g transform="translate(0.000000,1080.000000) scale(0.100000,-0.100000)"
fill="#000000" stroke="none">
<path d="M5265 8052 c-96 -46 -130 -141 -86 -238 19 -42 63 -84 87 -84 10 0
14 -13 14 -41 l0 -41 -182 8 c-101 4 -201 8 -223 8 l-40 1 -3 -44 c-2 -24 1
-48 5 -52 11 -11 357 -89 394 -89 37 0 39 -20 28 -235 -14 -296 -26 -363 -67
-395 -74 -59 -238 26 -336 175 -31 48 -32 55 -6 55 18 0 19 3 9 23 -7 12 -41
58 -77 102 -36 44 -68 82 -70 85 -7 9 -21 -26 -37 -90 -18 -72 -44 -240 -38
-240 2 0 24 11 48 25 l44 24 25 -55 c32 -70 137 -180 234 -245 l74 -49 -29
-11 c-15 -7 -75 -14 -133 -17 -126 -5 -215 15 -349 81 -145 70 -255 147 -491
344 -64 53 85 -104 175 -185 151 -135 381 -271 520 -307 168 -43 398 11 584
136 47 32 131 100 186 151 212 197 327 260 480 262 148 2 260 -53 412 -199 98
-94 102 -95 50 -6 -54 92 -162 195 -248 235 -203 96 -368 64 -612 -120 -62
-46 -117 -84 -124 -84 -6 0 -16 15 -22 33 -20 60 -66 491 -55 509 3 4 20 8 38
8 34 0 229 38 321 63 52 14 60 26 64 96 1 23 0 24 -76 18 -43 -4 -142 -9 -220
-13 l-143 -7 0 42 c0 22 4 41 9 41 5 0 24 12 41 26 65 55 88 148 53 221 -36
76 -147 113 -228 75z m133 -98 c25 -28 30 -88 8 -116 -62 -82 -189 9 -141 101
29 56 90 63 133 15z"/>
<path d="M5974 6910 c-132 -18 -282 -83 -468 -203 -193 -124 -331 -182 -500
-212 -186 -32 -349 -15 -500 54 -99 45 -250 148 -344 234 -45 43 -85 77 -88
77 -12 0 17 -36 114 -139 119 -128 194 -187 315 -248 185 -93 354 -131 531
-119 204 12 348 65 544 199 130 89 309 179 402 203 45 11 93 15 156 12 81 -3
100 -8 167 -41 44 -22 110 -68 162 -113 l88 -77 -28 49 c-147 256 -317 356
-551 324z"/>
<path d="M5920 6607 c-36 -12 -87 -35 -113 -50 -51 -30 -186 -152 -177 -160 3
-2 60 19 127 49 149 65 222 85 317 85 108 1 192 -27 274 -89 41 -31 41 -21 -3
38 -98 134 -262 183 -425 127z"/>
<path d="M8173 6179 c-112 -22 -200 -84 -245 -173 -64 -127 -34 -269 75 -357
29 -23 102 -66 163 -95 189 -91 234 -136 234 -231 0 -93 -64 -139 -183 -131
-73 5 -146 37 -194 85 -18 19 -38 31 -43 28 -23 -15 -101 -127 -98 -142 5 -26
102 -89 177 -115 52 -18 87 -23 171 -23 93 0 112 3 161 26 117 55 187 151 196
272 13 160 -60 255 -281 367 -148 75 -212 125 -221 174 -9 45 16 101 57 126
63 40 230 13 277 -44 22 -26 35 -19 86 51 l49 66 -35 29 c-47 40 -123 74 -193
87 -67 12 -93 12 -153 0z"/>
<path d="M2198 6173 l-28 -4 -1 -532 c-1 -293 -2 -539 -3 -547 -1 -8 2 -23 7
-32 8 -19 58 -23 132 -10 l40 7 0 70 c0 39 2 126 3 195 l2 125 82 -1 c46 0
103 3 128 8 104 19 230 110 275 198 51 101 53 245 4 341 -46 92 -159 163 -282
179 -71 9 -305 11 -359 3z m362 -184 c37 -9 88 -55 111 -99 18 -35 16 -138 -3
-175 -35 -67 -92 -93 -223 -102 l-95 -6 0 203 0 202 88 -7 c48 -3 103 -11 122
-16z"/>
<path d="M4148 6172 l-78 -3 0 -564 0 -565 59 0 c32 0 73 3 90 6 l31 7 -2 560
c-2 364 -7 561 -13 562 -5 0 -45 -1 -87 -3z"/>
<path d="M4447 6166 c-3 -7 -9 -262 -13 -565 l-7 -551 311 0 312 0 0 80 0 80
-215 0 -215 0 0 485 0 485 -84 0 c-62 0 -85 -4 -89 -14z"/>
<path d="M5480 6166 c-194 -54 -363 -218 -422 -411 -31 -99 -31 -253 -1 -350
50 -158 179 -290 348 -355 91 -35 267 -40 354 -10 138 46 280 169 344 296 46
92 61 160 60 269 -1 270 -156 490 -392 559 -65 19 -225 20 -291 2z m257 -178
c74 -27 167 -118 209 -203 27 -57 29 -67 29 -185 0 -162 -20 -217 -109 -306
-84 -84 -147 -107 -272 -102 -80 3 -100 8 -159 38 -82 42 -155 119 -187 198
-19 48 -23 76 -23 172 0 108 2 119 31 181 52 110 131 182 237 214 67 22 177
18 244 -7z"/>
<path d="M3025 6158 c-6 -21 -15 -1033 -8 -1071 7 -43 28 -51 114 -41 l59 7 2
241 3 241 80 3 c44 2 153 0 242 -3 l163 -7 2 -242 3 -241 24 -3 c14 -2 53 -1
88 3 l63 7 0 559 0 560 -87 -3 -88 -3 -3 -227 -2 -228 -43 0 c-23 0 -131 -1
-240 -3 l-197 -2 0 233 0 232 -85 0 c-60 0 -87 -4 -90 -12z"/>
<path d="M6177 6093 c-3 -43 -5 -79 -4 -80 2 -1 73 -5 160 -9 l157 -7 2 -476
3 -476 65 -3 c35 -2 75 -1 87 3 l23 5 2 478 3 477 95 1 c52 0 123 2 158 2 l62
2 0 80 0 80 -404 0 -403 0 -6 -77z"/>
<path d="M7098 6153 c-2 -9 -2 -261 0 -559 l2 -543 273 -3 c149 -2 295 -1 322
2 l50 5 3 78 3 77 -236 0 -235 0 0 165 0 165 153 0 c83 0 169 3 190 6 l37 7 0
80 0 80 -190 -6 -190 -7 0 155 0 155 234 0 234 0 4 80 3 80 -327 0 c-297 0
-327 -1 -330 -17z"/>
<path d="M2167 4873 c-4 -3 -7 -19 -7 -35 l0 -28 3368 0 c1852 0 3377 3 3390
6 16 5 22 14 22 35 l0 29 -3383 0 c-1861 0 -3387 -3 -3390 -7z"/>
<path d="M2352 4793 c108 -2 288 -2 400 0 112 1 23 2 -197 2 -220 0 -311 -1
-203 -2z"/>
<path d="M3068 4793 c6 -2 18 -2 25 0 6 3 1 5 -13 5 -14 0 -19 -2 -12 -5z"/>
<path d="M3218 4793 c7 -3 16 -2 19 1 4 3 -2 6 -13 5 -11 0 -14 -3 -6 -6z"/>
<path d="M3343 4793 c53 -2 141 -2 195 0 53 1 9 3 -98 3 -107 0 -151 -2 -97
-3z"/>
<path d="M3738 4793 c34 -2 88 -2 120 0 31 2 3 3 -63 3 -66 0 -92 -1 -57 -3z"/>
<path d="M4418 4793 c29 -2 74 -2 100 0 26 2 2 3 -53 3 -55 0 -76 -1 -47 -3z"/>
<path d="M4583 4793 c9 -2 23 -2 30 0 6 3 -1 5 -18 5 -16 0 -22 -2 -12 -5z"/>
<path d="M2606 4428 c-46 -95 -92 -197 -102 -225 -10 -29 -21 -53 -24 -53 -6
0 -18 26 -125 265 -64 142 -88 185 -99 174 -15 -14 -59 -550 -47 -562 5 -5 21
-7 37 -5 l29 3 7 118 c4 65 12 140 17 165 l8 47 13 -35 c25 -64 138 -288 151
-295 18 -12 38 21 114 195 38 87 73 156 77 154 4 -3 8 -27 8 -54 0 -51 17
-239 26 -277 4 -23 26 -29 58 -17 10 4 14 15 11 32 -3 15 -14 128 -25 252 -23
252 -28 290 -41 290 -5 0 -46 -78 -93 -172z"/>
<path d="M2988 4448 c-37 -84 -92 -210 -122 -280 -31 -71 -56 -132 -56 -138 0
-5 15 -10 33 -10 29 1 34 5 59 60 l27 60 135 0 135 0 25 -55 c24 -52 27 -55
62 -55 25 0 35 4 31 13 -3 6 -48 107 -100 222 -51 116 -105 237 -119 269 -13
33 -29 61 -34 63 -6 2 -40 -65 -76 -149z m87 -65 c3 -15 10 -30 14 -33 4 -3
24 -35 44 -72 l37 -68 -105 0 -104 0 33 78 c64 147 67 150 81 95z"/>
<path d="M5079 4434 c-44 -91 -93 -195 -109 -232 l-29 -67 -64 135 c-35 74
-83 177 -107 228 -24 50 -47 92 -51 92 -4 0 -10 -12 -13 -27 -5 -26 -27 -278
-41 -460 l-5 -83 29 0 c16 0 32 4 35 9 3 5 11 76 17 157 6 82 13 156 16 164 3
9 14 -8 27 -40 13 -30 48 -106 80 -167 43 -87 61 -113 76 -113 11 0 20 1 20 3
0 2 38 83 84 181 l84 177 6 -53 c3 -29 9 -111 15 -182 5 -70 11 -130 13 -131
2 -2 15 -1 31 2 33 7 33 9 12 278 -20 247 -25 295 -36 295 -5 0 -46 -75 -90
-166z"/>
<path d="M8785 4593 c-36 -9 -87 -55 -102 -91 -30 -73 8 -142 107 -192 31 -16
71 -40 87 -54 102 -86 -11 -206 -142 -152 -19 8 -35 20 -35 25 0 20 -31 11
-39 -11 -11 -29 0 -43 53 -70 49 -25 138 -28 183 -5 65 34 101 112 82 179 -13
50 -58 92 -138 133 -76 38 -88 50 -97 91 -9 47 26 84 80 84 23 0 51 -7 64 -15
24 -18 62 -6 62 20 0 33 -111 72 -165 58z"/>
<path d="M3397 4569 c-4 -13 -7 -142 -7 -287 l0 -263 38 3 37 3 0 113 0 112
40 0 c39 0 41 -2 98 -88 81 -122 90 -132 126 -132 17 0 31 4 31 10 0 5 -19 40
-43 77 -24 37 -53 84 -65 104 l-22 37 35 21 c51 30 75 75 75 141 0 42 -6 64
-24 91 -38 55 -84 73 -207 77 -104 4 -106 4 -112 -19z m244 -78 c39 -39 41
-106 5 -148 -23 -26 -29 -28 -103 -28 l-78 0 -3 103 -3 102 76 0 c71 0 79 -2
106 -29z"/>
<path d="M3847 4584 c-4 -4 -7 -133 -7 -286 l0 -278 23 0 c46 0 46 1 47 290
l1 275 -28 3 c-16 2 -32 0 -36 -4z"/>
<path d="M3994 4576 c-3 -8 -4 -23 -2 -33 3 -15 15 -18 86 -21 l82 -3 0 -244
0 -245 35 0 35 0 0 245 0 245 94 0 94 0 4 30 c3 17 2 32 0 35 -3 3 -99 5 -214
5 -172 0 -210 -2 -214 -14z"/>
<path d="M4495 4579 c-12 -18 -17 -184 -10 -353 l7 -196 34 0 34 0 0 258 c0
141 -3 267 -6 278 -4 16 -13 21 -31 20 -14 0 -26 -4 -28 -7z"/>
<path d="M5322 4313 l3 -278 150 4 c83 2 150 4 151 5 1 0 4 13 8 29 l6 27
-125 0 -125 0 0 95 0 94 103 3 c101 3 102 3 102 28 0 25 -1 25 -102 28 l-103
3 0 84 0 85 118 0 c65 0 121 2 124 5 2 3 3 18 0 35 l-4 30 -154 0 -154 0 2
-277z"/>
<path d="M6003 4574 c-46 -23 -67 -60 -67 -119 -1 -71 20 -98 113 -145 93 -46
121 -77 121 -132 0 -60 -34 -88 -105 -88 -55 0 -115 21 -115 40 0 17 -19 11
-30 -10 -15 -27 1 -53 43 -73 147 -70 294 22 272 169 -8 57 -47 97 -143 147
-97 51 -117 93 -67 142 31 32 87 33 134 4 33 -20 35 -20 48 -3 18 24 13 35
-27 62 -40 27 -128 30 -177 6z"/>
<path d="M6310 4443 c0 -82 -3 -205 -7 -275 l-6 -128 162 0 161 0 0 30 0 29
-122 3 -123 3 -3 84 c-2 61 1 87 10 92 7 5 57 9 111 9 l97 0 0 30 0 29 -107 3
-108 3 -3 83 -3 82 94 0 c52 0 109 3 126 6 27 6 32 11 29 33 l-3 26 -152 3
-153 3 0 -148z"/>
<path d="M6707 4583 c-4 -3 -7 -129 -7 -280 l0 -273 35 0 35 0 0 116 0 115 42
-3 c40 -3 45 -7 82 -63 21 -33 56 -84 78 -112 35 -49 42 -53 79 -53 l40 0 -54
78 c-30 42 -66 95 -81 116 l-26 39 31 16 c43 20 89 94 89 143 0 77 -55 139
-140 157 -56 12 -193 15 -203 4z m244 -92 c38 -39 40 -97 5 -138 -22 -25 -32
-28 -105 -33 l-81 -5 0 103 0 102 76 0 c70 0 78 -2 105 -29z"/>
<path d="M7075 4580 c-8 -14 -6 -20 92 -275 93 -240 109 -275 123 -275 5 0 26
32 45 70 35 70 215 468 215 476 0 2 -13 4 -30 4 -27 0 -33 -7 -64 -67 -18 -38
-59 -126 -91 -198 -32 -71 -61 -134 -65 -139 -5 -4 -11 3 -15 15 -10 33 -144
361 -153 375 -11 17 -49 26 -57 14z"/>
<path d="M7638 4583 c-17 -4 -18 -26 -18 -279 l0 -274 35 0 35 0 0 280 c0 304
3 288 -52 273z"/>
<path d="M7959 4575 c-60 -19 -137 -89 -169 -151 -65 -128 -3 -301 132 -368
104 -52 293 -23 293 44 0 30 -2 30 -88 6 -59 -17 -74 -18 -123 -7 -135 31
-205 180 -143 308 52 108 192 152 303 96 27 -14 31 -14 43 3 20 28 16 39 -24
59 -51 24 -164 29 -224 10z"/>
<path d="M8290 4313 l0 -278 152 3 c155 4 168 7 168 44 0 15 -14 18 -122 20
l-123 3 -3 93 -3 92 106 0 105 0 0 30 0 30 -105 0 -105 0 0 85 0 85 103 0
c132 0 149 5 145 39 l-3 26 -157 3 -158 3 0 -278z"/>
<path d="M4408 3664 c-5 -4 -8 -52 -8 -106 l0 -98 59 0 c54 0 71 8 71 35 0 2
-19 5 -42 7 -38 3 -43 6 -43 28 0 21 4 25 25 22 14 -1 31 2 39 7 22 14 3 31
-35 31 -28 0 -35 4 -32 18 2 11 15 19 37 22 36 5 56 30 24 30 -10 0 -34 3 -53
6 -19 3 -38 2 -42 -2z"/>
<path d="M4874 3656 c-65 -28 -82 -96 -41 -157 40 -59 114 -64 168 -9 58 58
28 158 -52 174 -40 8 -38 8 -75 -8z m100 -58 c35 -49 10 -98 -50 -98 -42 0
-74 30 -74 70 0 35 21 49 72 50 27 0 41 -6 52 -22z"/>
<path d="M5083 3663 c-9 -3 -13 -34 -13 -105 0 -97 0 -99 23 -96 17 2 23 10
25 40 3 33 6 37 35 40 24 2 32 8 32 23 0 16 -7 20 -35 20 -29 0 -36 4 -38 23
-3 20 1 22 37 22 42 0 58 21 25 34 -18 7 -73 7 -91 -1z"/>
<path d="M5337 3663 c-4 -3 -7 -51 -7 -105 l0 -99 57 3 c45 2 59 7 61 20 3 14
-6 19 -37 24 -31 5 -41 11 -41 25 0 15 7 19 36 19 28 0 35 3 32 18 -2 11 -14
18 -36 20 -24 2 -32 8 -32 23 0 15 7 19 35 19 23 0 35 5 35 14 0 19 -87 36
-103 19z"/>
<path d="M5720 3653 c-40 -21 -56 -55 -46 -105 10 -53 49 -88 100 -88 46 0 83
20 72 38 -4 7 -19 9 -36 5 -46 -9 -76 4 -90 37 -25 61 27 107 92 82 24 -9 30
-8 35 4 8 22 -6 32 -52 39 -28 4 -50 1 -75 -12z"/>
<path d="M5885 3660 c-4 -6 -4 -54 0 -106 l7 -95 56 3 c43 2 57 7 57 18 0 11
-13 16 -43 18 -40 3 -43 5 -40 30 3 24 7 27 36 24 28 -3 33 0 30 15 -2 12 -14
19 -36 21 -24 2 -32 8 -32 23 0 15 7 19 34 19 33 0 55 14 42 27 -12 13 -103
15 -111 3z"/>
<path d="M6190 3565 l0 -105 60 0 c53 0 60 2 60 20 0 17 -7 20 -40 20 l-40 0
0 69 c0 78 -6 101 -26 101 -11 0 -14 -22 -14 -105z"/>
<path d="M6347 3663 c-4 -3 -7 -51 -7 -105 l0 -98 60 0 c53 0 60 2 60 20 0 17
-7 20 -40 20 -38 0 -40 2 -40 30 0 28 3 30 35 30 24 0 35 5 35 15 0 10 -11 15
-35 15 -28 0 -35 4 -35 20 0 16 7 20 35 20 48 0 47 25 -2 34 -49 8 -58 7 -66
-1z"/>
<path d="M6620 3613 l0 -57 -49 55 c-63 70 -73 62 -69 -57 3 -75 6 -89 21 -92
15 -3 17 5 17 60 l1 63 24 -30 c14 -16 32 -45 40 -62 10 -21 23 -33 35 -33 19
0 19 6 14 93 -6 104 -9 117 -24 117 -6 0 -10 -24 -10 -57z"/>
<path d="M6763 3659 c-42 -12 -63 -44 -63 -96 0 -76 71 -126 139 -97 45 19 35
40 -17 36 -71 -6 -106 56 -63 109 18 22 22 23 52 12 17 -7 36 -10 40 -7 18 11
8 35 -17 44 -29 11 -28 11 -71 -1z"/>
<path d="M6907 3664 c-4 -4 -7 -52 -7 -106 l0 -99 57 3 c46 2 59 7 61 21 3 14
-4 17 -37 17 -37 0 -41 3 -41 24 0 21 6 25 32 28 22 2 34 9 36 21 3 14 -4 17
-32 17 -29 0 -36 4 -36 19 0 16 8 20 38 23 25 2 37 8 37 18 0 11 -14 16 -50
18 -28 2 -54 0 -58 -4z"/>
<path d="M3910 3645 c0 -9 9 -15 25 -15 25 0 25 -1 25 -84 0 -84 7 -99 38 -89
8 3 12 30 12 89 l0 84 30 0 c20 0 30 5 30 15 0 12 -16 15 -80 15 -64 0 -80 -3
-80 -15z"/>
<path d="M4100 3576 c0 -46 -3 -91 -6 -100 -5 -12 0 -16 20 -16 l26 0 0 100
c0 93 -1 100 -20 100 -18 0 -20 -7 -20 -84z"/>
<path d="M4190 3560 l0 -100 56 0 c48 0 59 4 85 29 40 40 41 106 3 145 -23 22
-35 26 -85 26 l-59 0 0 -100z m116 34 c21 -31 14 -65 -17 -83 -43 -24 -59 -10
-59 52 0 30 2 56 5 59 12 12 57 -6 71 -28z"/>
<path d="M4571 3646 c-23 -27 -9 -69 32 -95 53 -35 50 -55 -8 -47 -47 8 -54 2
-32 -28 20 -27 85 -18 110 15 24 33 13 57 -39 88 -42 25 -40 47 5 43 25 -2 31
2 31 18 0 17 -7 20 -44 20 -26 0 -48 -6 -55 -14z"/>
<path d="M5480 3648 c0 -7 9 -26 20 -43 27 -40 25 -55 -10 -103 -29 -41 -29
-42 -8 -42 12 0 33 14 48 32 l27 32 19 -32 c14 -24 25 -32 47 -32 l28 0 -24
33 c-50 66 -51 73 -17 122 l31 45 -25 0 c-16 0 -30 -10 -44 -31 l-19 -31 -16
23 c-9 12 -14 26 -11 31 3 4 -6 8 -20 8 -14 0 -26 -6 -26 -12z"/>
<path d="M6049 3575 c-1 -47 -2 -91 -3 -97 -1 -18 104 -24 115 -7 12 20 1 29
-37 29 l-34 0 0 80 c0 73 -2 80 -20 80 -18 0 -20 -7 -21 -85z"/>
<path d="M3610 3570 c0 -20 4 -21 88 -18 68 2 87 6 87 18 0 11 -19 15 -87 18
-84 3 -88 2 -88 -18z"/>
<path d="M7220 3571 c0 -20 5 -21 85 -21 69 0 85 3 85 15 0 11 -12 15 -47 15
-27 0 -65 3 -85 6 -34 6 -38 4 -38 -15z"/>
<path d="M1336 2546 c3 -8 -1 -25 -9 -38 -19 -30 -31 -85 -19 -92 5 -3 5 -32
-1 -68 -5 -35 -9 -73 -9 -85 0 -13 -5 -23 -10 -23 -6 0 -8 -14 -5 -32 5 -34
-12 -119 -25 -129 -5 -3 -8 -16 -7 -30 2 -48 -13 -244 -19 -254 -3 -5 -7 -68
-8 -140 -2 -175 -14 -372 -24 -413 -5 -20 -5 -44 0 -57 6 -15 6 -36 0 -52 -11
-34 -19 -302 -10 -308 4 -3 5 -24 3 -47 -7 -70 -12 -145 -18 -288 -4 -74 -8
-141 -11 -148 -2 -8 -1 -19 3 -25 5 -7 9 -52 9 -102 1 -50 2 -118 3 -152 l1
-63 160 0 c88 0 161 3 162 8 4 20 7 61 8 92 1 81 1 40 -5 363 -2 120 -7 227
-10 238 -4 11 -2 19 5 19 9 0 10 23 5 88 -3 48 -7 119 -8 157 0 43 -6 75 -14
83 -15 16 -19 212 -4 212 10 0 2 80 -9 95 -7 9 -11 51 -25 300 -3 50 -9 144
-14 210 -5 66 -9 138 -9 160 -1 59 -20 197 -32 223 -14 31 -13 72 2 72 7 0 5
7 -5 18 -15 16 -17 75 -3 89 11 12 6 48 -10 71 -9 13 -14 32 -11 43 4 14 0 19
-14 19 -12 0 -16 -5 -13 -14z"/>
</g>
</svg>
